<?xml version="1.0"?>
<svg xmlns="http://www.w3.org/2000/svg" width="281" height="88" viewBox="0 0 281 88" fill="none">
  <path d="M39.2816 73.5172C39.2816 76.2927 38.5143 78.4572 36.9797 80.0107C35.4546 81.5643 33.3233 82.341 30.5857 82.341C27.725 82.341 25.442 81.3748 23.737 79.4424C22.0414 77.5005 21.1936 74.9002 21.1936 71.6417C21.1936 68.4399 22.0414 65.8917 23.737 63.9972C25.4326 62.1027 27.7155 61.1554 30.5857 61.1554C32.8023 61.1554 34.6874 61.7664 36.2409 62.9884C37.8039 64.2009 38.7748 65.8254 39.1537 67.8621H36.4682C36.0419 66.4791 35.3125 65.4086 34.28 64.6508C33.257 63.893 32.0255 63.5141 30.5857 63.5141C28.4733 63.5141 26.8156 64.234 25.6125 65.6739C24.419 67.1042 23.8222 69.0888 23.8222 71.6274C23.8222 74.204 24.4285 76.2406 25.641 77.7373C26.8535 79.234 28.5017 79.9823 30.5857 79.9823C32.4044 79.9823 33.8822 79.4471 35.0189 78.3767C36.1556 77.2968 36.724 75.8996 36.724 74.1851V73.8156H30.9409V71.5706H39.2816V73.5172ZM42.3934 82V60.6013H44.8657V82H42.3934ZM59.8136 80.025C58.5348 81.4364 56.8202 82.1421 54.6699 82.1421C52.5196 82.1421 50.8051 81.4364 49.5263 80.025C48.2475 78.6135 47.6081 76.719 47.6081 74.3414C47.6081 71.9637 48.2475 70.0692 49.5263 68.6578C50.8051 67.2463 52.5196 66.5406 54.6699 66.5406C56.8202 66.5406 58.5348 67.2463 59.8136 68.6578C61.0924 70.0692 61.7318 71.9637 61.7318 74.3414C61.7318 76.719 61.0924 78.6135 59.8136 80.025ZM54.6699 79.9397C56.1003 79.9397 57.2133 79.4471 58.009 78.462C58.8142 77.4673 59.2168 76.0938 59.2168 74.3414C59.2168 72.5794 58.8142 71.2059 58.009 70.2208C57.2133 69.2356 56.1003 68.743 54.6699 68.743C53.2396 68.743 52.1218 69.2403 51.3166 70.235C50.5209 71.2201 50.123 72.5889 50.123 74.3414C50.123 76.0938 50.5256 77.4673 51.3308 78.462C52.136 79.4471 53.249 79.9397 54.6699 79.9397ZM71.8628 82.1421C70.745 82.1421 69.7599 81.91 68.9073 81.4458C68.0548 80.9722 67.3775 80.2949 66.8754 79.414H66.8186V82H64.4741V60.6013H66.9465V69.1693H67.0033C67.4864 68.3262 68.1542 67.6773 69.0068 67.2227C69.8593 66.768 70.8303 66.5406 71.9196 66.5406C73.8521 66.5406 75.415 67.2605 76.6086 68.7004C77.8022 70.1308 78.3989 72.0111 78.3989 74.3414C78.3989 76.6811 77.7974 78.5662 76.5944 79.9965C75.4008 81.4269 73.8236 82.1421 71.8628 82.1421ZM71.4223 68.743C70.0867 68.743 69.0021 69.264 68.1685 70.306C67.3443 71.3385 66.9323 72.6836 66.9323 74.3414C66.9323 76.0085 67.3443 77.3584 68.1685 78.3909C69.0021 79.4234 70.0867 79.9397 71.4223 79.9397C72.7674 79.9397 73.8426 79.4329 74.6478 78.4193C75.4624 77.4058 75.8697 76.0464 75.8697 74.3414C75.8697 72.6458 75.4624 71.2912 74.6478 70.2776C73.8426 69.2545 72.7674 68.743 71.4223 68.743ZM86.0149 79.9965C87.2653 79.9965 88.2979 79.6366 89.1125 78.9167C89.9366 78.1873 90.3487 77.2731 90.3487 76.1743V74.9381L86.3417 75.1939C84.0115 75.336 82.8463 76.1554 82.8463 77.6521C82.8463 78.3625 83.1305 78.9309 83.6989 79.3571C84.2767 79.7834 85.0487 79.9965 86.0149 79.9965ZM85.4892 82.1421C83.9357 82.1421 82.6853 81.73 81.738 80.9059C80.7908 80.0818 80.3171 78.9924 80.3171 77.6378C80.3171 76.3211 80.8097 75.2886 81.7949 74.5403C82.78 73.7825 84.2009 73.3467 86.0576 73.2331L90.3487 72.9773V71.6985C90.3487 70.7512 90.0456 70.0218 89.4393 69.5103C88.8331 68.9988 87.9663 68.743 86.8391 68.743C85.9486 68.743 85.1956 68.9562 84.5798 69.3824C83.9736 69.8087 83.5947 70.3818 83.4431 71.1017H81.0702C81.1081 69.8134 81.6812 68.7335 82.7895 67.8621C83.8978 66.9811 85.2571 66.5406 86.8675 66.5406C88.6768 66.5406 90.1213 66.9906 91.2012 67.8905C92.2811 68.7809 92.821 69.9792 92.821 71.4854V82H90.4766V79.3429H90.4197C89.984 80.1955 89.3209 80.8775 88.4305 81.389C87.54 81.8911 86.5596 82.1421 85.4892 82.1421ZM96.2454 82V60.6013H98.7178V82H96.2454ZM117.374 82H114.817V63.7983H108.209V61.4964H123.981V63.7983H117.374V82ZM129.494 68.7146C128.291 68.7146 127.292 69.1125 126.496 69.9082C125.71 70.7039 125.274 71.7506 125.189 73.0483H133.615C133.587 71.7506 133.194 70.7039 132.436 69.9082C131.687 69.1125 130.707 68.7146 129.494 68.7146ZM133.558 77.6236H136.002C135.794 78.9403 135.093 80.025 133.899 80.8775C132.706 81.7206 131.29 82.1421 129.651 82.1421C127.5 82.1421 125.791 81.4458 124.521 80.0534C123.261 78.6609 122.632 76.7758 122.632 74.3982C122.632 72.0206 123.261 70.1166 124.521 68.6862C125.781 67.2558 127.453 66.5406 129.537 66.5406C131.583 66.5406 133.203 67.2179 134.397 68.5725C135.59 69.9176 136.187 71.7458 136.187 74.0572V75.0234H125.189V75.1655C125.189 76.6243 125.601 77.7894 126.425 78.6609C127.249 79.5324 128.344 79.9681 129.708 79.9681C130.664 79.9681 131.488 79.7597 132.18 79.3429C132.881 78.9167 133.34 78.3436 133.558 77.6236ZM151.447 71.6701H149.018C148.857 70.8081 148.43 70.1071 147.739 69.5671C147.047 69.0177 146.147 68.743 145.039 68.743C143.694 68.743 142.609 69.2545 141.785 70.2776C140.961 71.3006 140.549 72.6552 140.549 74.3414C140.549 76.0654 140.961 77.4294 141.785 78.4335C142.619 79.4376 143.713 79.9397 145.067 79.9397C146.138 79.9397 147.014 79.6981 147.696 79.215C148.388 78.7225 148.838 78.0167 149.046 77.0979H151.476C151.267 78.6041 150.576 79.8213 149.401 80.7496C148.236 81.6779 146.787 82.1421 145.053 82.1421C142.931 82.1421 141.231 81.4411 139.952 80.0392C138.673 78.6277 138.034 76.7285 138.034 74.3414C138.034 71.9921 138.673 70.1071 139.952 68.6862C141.231 67.2558 142.922 66.5406 145.025 66.5406C146.834 66.5406 148.317 67.0427 149.472 68.0468C150.628 69.0414 151.286 70.2492 151.447 71.6701ZM153.991 82V60.6013H156.463V69.1693H156.52C157.486 67.4168 159.153 66.5406 161.521 66.5406C163.198 66.5406 164.553 67.0616 165.585 68.1036C166.618 69.1456 167.134 70.5191 167.134 72.2242V82H164.662V72.6647C164.662 71.4427 164.316 70.486 163.624 69.7945C162.942 69.0935 161.995 68.743 160.783 68.743C159.485 68.743 158.438 69.1503 157.642 69.965C156.856 70.7796 156.463 71.8548 156.463 73.1904V82H153.991ZM170.416 82V66.6827H172.747V69.1693H172.803C173.779 67.4168 175.446 66.5406 177.805 66.5406C179.491 66.5406 180.822 67.0474 181.798 68.061C182.773 69.0651 183.261 70.4386 183.261 72.1816V82H180.789V72.6079C180.789 71.3575 180.467 70.4007 179.823 69.7376C179.188 69.0746 178.269 68.743 177.066 68.743C175.806 68.743 174.793 69.1409 174.025 69.9366C173.268 70.7323 172.889 71.7885 172.889 73.1052V82H170.416ZM198.01 80.025C196.731 81.4364 195.017 82.1421 192.867 82.1421C190.716 82.1421 189.002 81.4364 187.723 80.025C186.444 78.6135 185.805 76.719 185.805 74.3414C185.805 71.9637 186.444 70.0692 187.723 68.6578C189.002 67.2463 190.716 66.5406 192.867 66.5406C195.017 66.5406 196.731 67.2463 198.01 68.6578C199.289 70.0692 199.928 71.9637 199.928 74.3414C199.928 76.719 199.289 78.6135 198.01 80.025ZM192.867 79.9397C194.297 79.9397 195.41 79.4471 196.206 78.462C197.011 77.4673 197.413 76.0938 197.413 74.3414C197.413 72.5794 197.011 71.2059 196.206 70.2208C195.41 69.2356 194.297 68.743 192.867 68.743C191.436 68.743 190.318 69.2403 189.513 70.235C188.717 71.2201 188.32 72.5889 188.32 74.3414C188.32 76.0938 188.722 77.4673 189.527 78.462C190.333 79.4471 191.446 79.9397 192.867 79.9397ZM202.671 82V60.6013H205.143V82H202.671ZM220.091 80.025C218.812 81.4364 217.098 82.1421 214.947 82.1421C212.797 82.1421 211.082 81.4364 209.804 80.025C208.525 78.6135 207.885 76.719 207.885 74.3414C207.885 71.9637 208.525 70.0692 209.804 68.6578C211.082 67.2463 212.797 66.5406 214.947 66.5406C217.098 66.5406 218.812 67.2463 220.091 68.6578C221.37 70.0692 222.009 71.9637 222.009 74.3414C222.009 76.719 221.37 78.6135 220.091 80.025ZM214.947 79.9397C216.378 79.9397 217.491 79.4471 218.286 78.462C219.092 77.4673 219.494 76.0938 219.494 74.3414C219.494 72.5794 219.092 71.2059 218.286 70.2208C217.491 69.2356 216.378 68.743 214.947 68.743C213.517 68.743 212.399 69.2403 211.594 70.235C210.798 71.2201 210.4 72.5889 210.4 74.3414C210.4 76.0938 210.803 77.4673 211.608 78.462C212.413 79.4471 213.526 79.9397 214.947 79.9397ZM230.805 79.7976C232.15 79.7976 233.234 79.2908 234.058 78.2772C234.892 77.2542 235.309 75.9233 235.309 74.2845C235.309 72.6363 234.892 71.3006 234.058 70.2776C233.234 69.2545 232.15 68.743 230.805 68.743C229.469 68.743 228.398 69.2498 227.593 70.2634C226.788 71.2675 226.386 72.6079 226.386 74.2845C226.386 75.9517 226.788 77.2874 227.593 78.2915C228.398 79.2956 229.469 79.7976 230.805 79.7976ZM230.847 87.4705C229.114 87.4705 227.669 87.0821 226.513 86.3053C225.358 85.538 224.69 84.5197 224.51 83.2504H227.082C227.262 83.8851 227.702 84.3871 228.403 84.7565C229.114 85.1354 229.976 85.3249 230.989 85.3249C232.315 85.3249 233.367 85.0028 234.144 84.3587C234.92 83.724 235.309 82.862 235.309 81.7727V79.3713H235.252C234.769 80.2049 234.096 80.8538 233.234 81.318C232.372 81.7727 231.406 82 230.336 82C228.394 82 226.826 81.2943 225.632 79.8829C224.448 78.462 223.856 76.5958 223.856 74.2845C223.856 71.9448 224.453 70.0692 225.647 68.6578C226.84 67.2463 228.422 66.5406 230.392 66.5406C231.472 66.5406 232.443 66.768 233.305 67.2227C234.177 67.6773 234.868 68.3262 235.38 69.1693H235.422V66.6827H237.781V81.5737C237.781 83.402 237.161 84.8418 235.92 85.8933C234.688 86.9447 232.997 87.4705 230.847 87.4705ZM241.291 82V66.6827H243.763V82H241.291ZM242.527 64.2104C242.101 64.2104 241.731 64.0588 241.419 63.7557C241.115 63.4431 240.964 63.0736 240.964 62.6474C240.964 62.2116 241.115 61.8422 241.419 61.5391C241.731 61.2359 242.101 61.0844 242.527 61.0844C242.963 61.0844 243.332 61.2359 243.635 61.5391C243.938 61.8422 244.09 62.2116 244.09 62.6474C244.09 63.0736 243.938 63.4431 243.635 63.7557C243.332 64.0588 242.963 64.2104 242.527 64.2104ZM253.368 68.7146C252.165 68.7146 251.166 69.1125 250.37 69.9082C249.584 70.7039 249.148 71.7506 249.063 73.0483H257.489C257.461 71.7506 257.067 70.7039 256.31 69.9082C255.561 69.1125 254.581 68.7146 253.368 68.7146ZM257.432 77.6236H259.876C259.668 78.9403 258.967 80.025 257.773 80.8775C256.58 81.7206 255.163 82.1421 253.525 82.1421C251.374 82.1421 249.665 81.4458 248.395 80.0534C247.135 78.6609 246.505 76.7758 246.505 74.3982C246.505 72.0206 247.135 70.1166 248.395 68.6862C249.655 67.2558 251.327 66.5406 253.411 66.5406C255.457 66.5406 257.077 67.2179 258.27 68.5725C259.464 69.9176 260.061 71.7458 260.061 74.0572V75.0234H249.063V75.1655C249.063 76.6243 249.475 77.7894 250.299 78.6609C251.123 79.5324 252.217 79.9681 253.582 79.9681C254.538 79.9681 255.362 79.7597 256.054 79.3429C256.755 78.9167 257.214 78.3436 257.432 77.6236ZM262.405 70.9596C262.405 69.6713 262.931 68.6151 263.982 67.791C265.043 66.9669 266.407 66.5548 268.075 66.5548C269.628 66.5548 270.931 66.9716 271.982 67.8052C273.043 68.6293 273.597 69.6713 273.645 70.9312H271.272C271.196 70.2113 270.864 69.6429 270.277 69.2261C269.69 68.8093 268.927 68.6009 267.989 68.6009C267.042 68.6009 266.28 68.8046 265.702 69.2119C265.124 69.6192 264.835 70.1592 264.835 70.8317C264.835 71.8548 265.697 72.5794 267.421 73.0057L269.751 73.5883C271.295 73.9767 272.38 74.4787 273.005 75.0944C273.64 75.7007 273.957 76.5627 273.957 77.6805C273.957 78.9877 273.389 80.0581 272.252 80.8917C271.125 81.7253 269.676 82.1421 267.904 82.1421C266.256 82.1421 264.887 81.7348 263.798 80.9201C262.708 80.096 262.102 79.0208 261.979 77.6947H264.466C264.589 78.4714 264.958 79.0682 265.574 79.485C266.199 79.8923 267.033 80.096 268.075 80.096C269.117 80.096 269.941 79.8971 270.547 79.4992C271.163 79.0919 271.471 78.5425 271.471 77.851C271.471 77.311 271.291 76.8848 270.931 76.5722C270.571 76.2501 269.955 75.9754 269.083 75.748L266.398 75.0518C263.736 74.3603 262.405 72.9962 262.405 70.9596Z" fill="#172747"></path>
  <path d="M77.332 1.26953V52H67.875V17.7578H67.5938L53.8125 51.5078H47.1328L33.3516 17.7578H33.0703V52H23.6133V1.26953H35.918L50.332 37.2344H50.6133L65.0273 1.26953H77.332ZM118.992 52L115.125 39.6953H97.3008L93.4336 52H82.5352L100.148 1.26953H112.629L130.277 52H118.992ZM106.09 10.9727L99.5859 31.75H112.84L106.336 10.9727H106.09ZM155.449 52.8789C140.684 52.8789 131.438 43 131.438 26.6172C131.438 10.2695 140.754 0.390625 155.449 0.390625C167.648 0.390625 176.93 8.125 177.738 19.4805H167.402C166.418 13.2578 161.637 9.17969 155.449 9.17969C147.434 9.17969 142.266 15.8945 142.266 26.582C142.266 37.4102 147.363 44.0898 155.484 44.0898C161.777 44.0898 166.312 40.3984 167.438 34.3867H177.773C176.578 45.707 167.895 52.8789 155.449 52.8789ZM194.965 9.56641V25.7383H204.281C209.625 25.7383 212.754 22.6797 212.754 17.6523C212.754 12.7305 209.449 9.56641 204.176 9.56641H194.965ZM194.965 33.4375V52H184.348V1.26953H205.301C216.973 1.26953 223.652 7.42188 223.652 17.4414C223.652 23.9453 220.277 29.5703 214.441 31.8555L225.129 52H213.105L203.648 33.4375H194.965ZM253.5 0.390625C268.512 0.390625 277.969 10.4805 277.969 26.6523C277.969 42.7891 268.512 52.8789 253.5 52.8789C238.453 52.8789 229.031 42.7891 229.031 26.6523C229.031 10.4805 238.453 0.390625 253.5 0.390625ZM253.5 9.25C245.203 9.25 239.859 16 239.859 26.6523C239.859 37.2695 245.168 43.9844 253.5 43.9844C261.797 43.9844 267.105 37.2695 267.105 26.6523C267.105 16 261.797 9.25 253.5 9.25Z" fill="#172747"></path>
  <rect y="1" width="3" height="83" fill="#172747"></rect>
</svg>